<svg version="1.1" xmlns="http://www.w3.org/2000/svg" viewBox="0 0 87.40521006981476 83.83071563183182" width="174.8104201396295" height="167.66143126366364" filter="invert(93%) hue-rotate(180deg)">
  <!-- svg-source:excalidraw -->
  
  <defs>
    <style class="style-fonts">
      @font-face {
        font-family: "Virgil";
        src: url("https://excalidraw.com/Virgil.woff2");
      }
      @font-face {
        font-family: "Cascadia";
        src: url("https://excalidraw.com/Cascadia.woff2");
      }
    </style>
  </defs>
  <g transform="translate(18.862837158665116 20.008172535811468) rotate(0 25.416000366210938 22.5)"><text x="25.416000366210938" y="0" font-family="Virgil, Segoe UI Emoji" font-size="36px" fill="#1e1e1e" text-anchor="middle" style="white-space: pre;" direction="ltr" dominant-baseline="text-before-edge">TS</text></g><g stroke-linecap="round" transform="translate(10 10) rotate(0 33.70260503490738 31.91535781591591)"><path d="M15.96 0 M15.96 0 C22.13 0.7, 30.31 -1.12, 51.45 0 M15.96 0 C29.88 0.47, 44.21 -1.11, 51.45 0 M51.45 0 C61.16 -0.63, 65.87 3.41, 67.41 15.96 M51.45 0 C62.12 0.55, 67.26 5.29, 67.41 15.96 M67.41 15.96 C69.1 23.57, 68 31.38, 67.41 47.87 M67.41 15.96 C67.93 25, 66.87 33.84, 67.41 47.87 M67.41 47.87 C67.38 56.8, 62.32 65.32, 51.45 63.83 M67.41 47.87 C69.29 59.74, 61.37 65.56, 51.45 63.83 M51.45 63.83 C43.14 62.96, 34.96 63.71, 15.96 63.83 M51.45 63.83 C43.46 64.62, 35.55 63.55, 15.96 63.83 M15.96 63.83 C3.8 63.46, -1.99 56.81, 0 47.87 M15.96 63.83 C4.99 63.12, 1.22 57.58, 0 47.87 M0 47.87 C0.16 40.6, -1.63 32.06, 0 15.96 M0 47.87 C-0.8 39.54, 0.19 32.78, 0 15.96 M0 15.96 C0.74 3.52, 4.31 -0.59, 15.96 0 M0 15.96 C-2.09 3.83, 6.9 1.06, 15.96 0" stroke="#1e1e1e" stroke-width="4" fill="none"></path></g></svg>